# xmcd
#
# Track frame offsets:
#  150
#  17857
#  33431
#  46338
#  64944
#  76801
#  96608
#  112814
#  128569
#  146724
#  167430
#  180337
#
# Disc length: 2564 seconds
#
# Revision: 0
# Processed by: cddbd v1.5.1PL0 Copyright (c) Steve Scherf et al.
# Submitted via: AltoMP3_Maker 3.0
#
DISCID=960a020c
DTITLE=The {Notorious} Cherry Bombs - The {Notorious} Cherry Bombs
DYEAR=1900
DGENRE=
TTITLE0=Let It Roll, Let It Ride
TTITLE1=If I Ever Break Your Heart
TTITLE2=Wait A Minute
TTITLE3=Making Memories Of Us
TTITLE4=Oklahoma Dust
TTITLE5=Dangerous Curves
TTITLE6=Forever Someday
TTITLE7=On The Road To Ruin
TTITLE8=Heart Of A Jealous Man
TTITLE9=Its Hard To Kiss The Lips That Chew Your Ass All Day Long
TTITLE10=Sweet Little Lisa
TTITLE11=Let It Roll, Let It Ride (Reprise)
EXTD=
EXTT0=
EXTT1=
EXTT2=
EXTT3=
EXTT4=
EXTT5=
EXTT6=
EXTT7=
EXTT8=
EXTT9=
EXTT10=
EXTT11=
PLAYORDER=
